<mxfile host="app.diagrams.net" modified="2023-05-10T15:43:04.778Z" agent="Mozilla/5.0 (Windows NT 10.0; Win64; x64) AppleWebKit/537.36 (KHTML, like Gecko) Chrome/112.0.0.0 Safari/537.36" version="21.2.9" etag="4dIrS2dbmIUzqHfbvN-M" type="github">
  <diagram name="Page-1" id="gcPHQo3pj2VM8DZ63rwu">
    <mxGraphModel>
      <root>
        <mxCell id="0" />
        <mxCell id="1" parent="0" />
      </root>
    </mxGraphModel>
  </diagram>
</mxfile>
